<svg width="45" height="45" viewBox="0 0 45 45" fill="none" xmlns="http://www.w3.org/2000/svg">
<path fill-rule="evenodd" clip-rule="evenodd" d="M12.09 3.28125C10.4054 3.2812 9.00056 3.28115 7.88536 3.43109C6.70824 3.58935 5.64549 3.93748 4.79149 4.79149C3.93748 5.64549 3.58935 6.70824 3.43109 7.88536C3.28115 9.00056 3.2812 10.4053 3.28125 12.09V12.285C3.2812 13.9696 3.28115 15.3744 3.43109 16.4897C3.58935 17.6668 3.93748 18.7295 4.79149 19.5835C5.64549 20.4375 6.70824 20.7857 7.88536 20.9439C9.00056 21.0939 10.4053 21.0938 12.09 21.0938H12.285C13.9696 21.0938 15.3744 21.0939 16.4897 20.9439C17.6668 20.7857 18.7295 20.4375 19.5835 19.5835C20.4375 18.7295 20.7857 17.6668 20.9439 16.4897C21.0939 15.3744 21.0938 13.9697 21.0938 12.2851V12.09C21.0938 10.4054 21.0939 9.00056 20.9439 7.88536C20.7857 6.70824 20.4375 5.64549 19.5835 4.79149C18.7295 3.93748 17.6668 3.58935 16.4897 3.43109C15.3744 3.28115 13.9697 3.2812 12.2851 3.28125H12.09ZM6.78022 6.78022C7.02457 6.53588 7.39488 6.33484 8.26012 6.21851C9.16581 6.09674 10.38 6.09376 12.1875 6.09376C13.995 6.09376 15.2092 6.09674 16.1149 6.21851C16.9801 6.33484 17.3504 6.53588 17.5948 6.78022C17.8391 7.02457 18.0402 7.39488 18.1565 8.26012C18.2783 9.16581 18.2813 10.38 18.2813 12.1875C18.2813 13.995 18.2783 15.2092 18.1565 16.1149C18.0402 16.9801 17.8391 17.3504 17.5948 17.5948C17.3504 17.8391 16.9801 18.0402 16.1149 18.1565C15.2092 18.2783 13.995 18.2813 12.1875 18.2813C10.38 18.2813 9.16581 18.2783 8.26012 18.1565C7.39488 18.0402 7.02457 17.8391 6.78022 17.5948C6.53588 17.3504 6.33484 16.9801 6.21851 16.1149C6.09674 15.2092 6.09376 13.995 6.09376 12.1875C6.09376 10.38 6.09674 9.16581 6.21851 8.26012C6.33484 7.39488 6.53588 7.02457 6.78022 6.78022Z" fill="white"/>
<path d="M34.2188 6.56251C34.2188 5.78586 33.5892 5.15626 32.8125 5.15626C32.0359 5.15626 31.4063 5.78586 31.4063 6.56251V10.7813H27.1875C26.4109 10.7813 25.7813 11.4109 25.7813 12.1875C25.7813 12.9642 26.4109 13.5938 27.1875 13.5938H31.4063V17.8125C31.4063 18.5892 32.0359 19.2188 32.8125 19.2188C33.5892 19.2188 34.2188 18.5892 34.2188 17.8125V13.5938H38.4375C39.2142 13.5938 39.8438 12.9642 39.8438 12.1875C39.8438 11.4109 39.2142 10.7813 38.4375 10.7813H34.2188V6.56251Z" fill="white"/>
<path fill-rule="evenodd" clip-rule="evenodd" d="M32.715 23.9063H32.91C34.5947 23.9062 35.9994 23.9062 37.1147 24.0561C38.2918 24.2143 39.3545 24.5625 40.2085 25.4165C41.0625 26.2705 41.4107 27.3332 41.5689 28.5104C41.7189 29.6255 41.7188 31.0303 41.7188 32.7149V32.91C41.7188 34.5946 41.7189 35.9995 41.5689 37.1147C41.4107 38.2918 41.0625 39.3545 40.2085 40.2085C39.3545 41.0625 38.2918 41.4107 37.1147 41.5689C35.9995 41.7189 34.5947 41.7188 32.9101 41.7188H32.715C31.0304 41.7188 29.6255 41.7189 28.5104 41.5689C27.3332 41.4107 26.2705 41.0625 25.4165 40.2085C24.5625 39.3545 24.2143 38.2918 24.0561 37.1147C23.9062 35.9994 23.9062 34.5947 23.9063 32.91V32.715C23.9062 31.0304 23.9062 29.6256 24.0561 28.5104C24.2143 27.3332 24.5625 26.2705 25.4165 25.4165C26.2705 24.5625 27.3332 24.2143 28.5104 24.0561C29.6256 23.9062 31.0304 23.9062 32.715 23.9063ZM28.8851 26.8435C28.0199 26.9598 27.6496 27.1609 27.4052 27.4052C27.1609 27.6496 26.9598 28.0199 26.8435 28.8851C26.7217 29.7908 26.7188 31.005 26.7188 32.8125C26.7188 34.62 26.7217 35.8342 26.8435 36.7399C26.9598 37.6051 27.1609 37.9754 27.4052 38.2198C27.6496 38.4641 28.0199 38.6652 28.8851 38.7815C29.7908 38.9033 31.005 38.9063 32.8125 38.9063C34.62 38.9063 35.8342 38.9033 36.7399 38.7815C37.6051 38.6652 37.9754 38.4641 38.2198 38.2198C38.4641 37.9754 38.6652 37.6051 38.7815 36.7399C38.9033 35.8342 38.9063 34.62 38.9063 32.8125C38.9063 31.005 38.9033 29.7908 38.7815 28.8851C38.6652 28.0199 38.4641 27.6496 38.2198 27.4052C37.9754 27.1609 37.6051 26.9598 36.7399 26.8435C35.8342 26.7217 34.62 26.7188 32.8125 26.7188C31.005 26.7188 29.7908 26.7217 28.8851 26.8435Z" fill="white"/>
<path fill-rule="evenodd" clip-rule="evenodd" d="M12.09 23.9063C10.4054 23.9062 9.00057 23.9062 7.88536 24.0561C6.70824 24.2143 5.64549 24.5625 4.79149 25.4165C3.93748 26.2705 3.58935 27.3332 3.43109 28.5104C3.28115 29.6256 3.2812 31.0303 3.28125 32.715V32.91C3.2812 34.5946 3.28115 35.9994 3.43109 37.1147C3.58935 38.2918 3.93748 39.3545 4.79149 40.2085C5.64549 41.0625 6.70824 41.4107 7.88536 41.5689C9.00056 41.7189 10.4053 41.7188 12.09 41.7188H12.285C13.9696 41.7188 15.3744 41.7189 16.4897 41.5689C17.6668 41.4107 18.7295 41.0625 19.5835 40.2085C20.4375 39.3545 20.7857 38.2918 20.9439 37.1147C21.0939 35.9995 21.0938 34.5947 21.0938 32.9101V32.715C21.0938 31.0304 21.0939 29.6256 20.9439 28.5104C20.7857 27.3332 20.4375 26.2705 19.5835 25.4165C18.7295 24.5625 17.6668 24.2143 16.4897 24.0561C15.3744 23.9062 13.9697 23.9062 12.285 23.9063H12.09ZM6.78022 27.4052C7.02457 27.1609 7.39488 26.9598 8.26012 26.8435C9.16581 26.7217 10.38 26.7188 12.1875 26.7188C13.995 26.7188 15.2092 26.7217 16.1149 26.8435C16.9801 26.9598 17.3504 27.1609 17.5948 27.4052C17.8391 27.6496 18.0402 28.0199 18.1565 28.8851C18.2783 29.7908 18.2813 31.005 18.2813 32.8125C18.2813 34.62 18.2783 35.8342 18.1565 36.7399C18.0402 37.6051 17.8391 37.9754 17.5948 38.2198C17.3504 38.4641 16.9801 38.6652 16.1149 38.7815C15.2092 38.9033 13.995 38.9063 12.1875 38.9063C10.38 38.9063 9.16581 38.9033 8.26012 38.7815C7.39488 38.6652 7.02457 38.4641 6.78022 38.2198C6.53588 37.9754 6.33484 37.6051 6.21851 36.7399C6.09674 35.8342 6.09376 34.62 6.09376 32.8125C6.09376 31.005 6.09674 29.7908 6.21851 28.8851C6.33484 28.0199 6.53588 27.6496 6.78022 27.4052Z" fill="white"/>
</svg>
