<svg width="45" height="45" viewBox="0 0 45 45" fill="none" xmlns="http://www.w3.org/2000/svg">
<path d="M37.0102 7.98972C31.9822 2.96176 23.8303 2.96176 18.8024 7.98972L17.4508 9.34131C16.9016 9.89048 16.9016 10.7809 17.4508 11.33C17.9999 11.8792 18.8903 11.8792 19.4395 11.33L20.7911 9.97845C24.7207 6.04885 31.0918 6.04885 35.0215 9.97845C38.9511 13.9081 38.9511 20.2792 35.0215 24.2088L33.6699 25.5604C33.1207 26.1096 33.1207 27 33.6699 27.5491C34.219 28.0983 35.1094 28.0983 35.6586 27.5491L37.0102 26.1975C42.0381 21.1696 42.0381 13.0177 37.0102 7.98972Z" fill="white"/>
<path d="M11.33 17.4508C11.8792 17.9999 11.8792 18.8903 11.33 19.4395L9.97845 20.7911C6.04885 24.7207 6.04885 31.0918 9.97845 35.0215C13.9081 38.9511 20.2792 38.9511 24.2088 35.0215L25.5604 33.6699C26.1096 33.1207 27 33.1207 27.5491 33.6699C28.0983 34.219 28.0983 35.1094 27.5491 35.6586L26.1976 37.0102C21.1696 42.0381 13.0177 42.0381 7.98972 37.0102C2.96176 31.9822 2.96176 23.8303 7.98972 18.8024L9.34131 17.4508C9.89048 16.9016 10.7809 16.9016 11.33 17.4508Z" fill="white"/>
<path d="M27.549 17.4508C28.0982 17.9999 28.0982 18.8903 27.549 19.4395L19.4395 27.549C18.8903 28.0982 17.9999 28.0982 17.4508 27.549C16.9016 26.9999 16.9016 26.1095 17.4508 25.5603L25.5603 17.4508C26.1095 16.9016 26.9999 16.9016 27.549 17.4508Z" fill="white"/>
</svg>
