<svg width="45" height="45" viewBox="0 0 45 45" fill="none" xmlns="http://www.w3.org/2000/svg">
<path d="M26.25 20.625C26.25 19.5895 27.0895 18.75 28.125 18.75C29.1605 18.75 30 19.5895 30 20.625V24.375C30 25.4105 29.1605 26.25 28.125 26.25C27.0895 26.25 26.25 25.4105 26.25 24.375V20.625Z" stroke="white" stroke-width="2.5"/>
<path d="M26.2648 35.6304L25.0148 35.6268L26.2648 35.6304ZM26.2757 31.875L27.5257 31.8786V31.875H26.2757ZM5.90546 35.3033L5.02268 36.1883H5.02268L5.90546 35.3033ZM5.90546 9.6967L5.02268 8.81172V8.81172L5.90546 9.6967ZM5.53703 19.2256L4.92757 20.317L4.92757 20.317L5.53703 19.2256ZM3.76983 16.8553L2.52094 16.8028L3.76983 16.8553ZM5.53703 25.7744L4.92757 24.683L4.92757 24.683L5.53703 25.7744ZM3.76983 28.1447L5.01873 28.0922L3.76983 28.1447ZM39.463 19.2256L40.0724 20.317L39.463 19.2256ZM41.2302 16.8553L42.4791 16.8028V16.8028L41.2302 16.8553ZM39.0945 9.6967L39.9773 8.81172V8.81172L39.0945 9.6967ZM39.463 25.7744L38.8535 26.8657L39.463 25.7744ZM41.2302 28.1447L42.4791 28.1973V28.1972L41.2302 28.1447ZM39.0945 35.3033L39.9773 36.1883L39.0945 35.3033ZM41.1444 26.8725L42.2351 26.2619L42.2351 26.2619L41.1444 26.8725ZM41.1444 18.1275L42.2351 18.7381L42.2351 18.7381L41.1444 18.1275ZM3.85565 26.8725L2.76491 26.2619L2.76491 26.2619L3.85565 26.8725ZM3.85565 18.1275L4.94638 17.517L4.94638 17.517L3.85565 18.1275ZM26.2757 13.125H27.5257L27.5257 13.1214L26.2757 13.125ZM26.2621 8.43478L25.0121 8.43841V8.43841L26.2621 8.43478ZM30.9896 7.53544L31.0218 6.28586L30.9896 7.53544ZM31.938 37.4328L31.9908 38.6817H31.9908L31.938 37.4328ZM25.9865 37.2264L25.1039 36.3412L25.1039 36.3412L25.9865 37.2264ZM27.5148 35.6341L27.5257 31.8786L25.0257 31.8714L25.0148 35.6268L27.5148 35.6341ZM28.1553 31.25C28.506 31.25 28.785 31.5328 28.785 31.875H31.285C31.285 30.1462 29.8809 28.75 28.1553 28.75V31.25ZM28.1553 28.75C26.4298 28.75 25.0257 30.1462 25.0257 31.875H27.5257C27.5257 31.5328 27.8047 31.25 28.1553 31.25V28.75ZM18.7407 8.75H25.3222V6.25H18.7407V8.75ZM24.3898 36.25H18.7407V38.75H24.3898V36.25ZM18.7407 36.25C15.1611 36.25 12.6018 36.2474 10.6568 35.9865C8.74737 35.7304 7.61824 35.2463 6.78824 34.4183L5.02268 36.1883C6.39484 37.557 8.13898 38.1712 10.3245 38.4643C12.4743 38.7526 15.2316 38.75 18.7407 38.75V36.25ZM18.7407 6.25C15.2316 6.25 12.4743 6.24736 10.3245 6.53568C8.13898 6.82878 6.39484 7.44296 5.02268 8.81172L6.78824 10.5817C7.61824 9.75374 8.74737 9.26957 10.6568 9.0135C12.6018 8.75264 15.1611 8.75 18.7407 8.75V6.25ZM4.92757 20.317C5.69807 20.7472 6.21263 21.5653 6.21263 22.5H8.71263C8.71263 20.621 7.67389 18.9872 6.14649 18.1343L4.92757 20.317ZM5.01873 16.9078C5.16513 13.4256 5.64013 11.7269 6.78824 10.5817L5.02268 8.81172C3.13829 10.6914 2.66874 13.2871 2.52094 16.8028L5.01873 16.9078ZM6.21263 22.5C6.21263 23.4347 5.69807 24.2528 4.92757 24.683L6.14649 26.8657C7.67389 26.0128 8.71263 24.379 8.71263 22.5H6.21263ZM2.52094 28.1972C2.66874 31.7129 3.13829 34.3086 5.02268 36.1883L6.78824 34.4183C5.64013 33.2731 5.16513 31.5744 5.01873 28.0922L2.52094 28.1972ZM38.7874 22.5C38.7874 21.5653 39.3019 20.7472 40.0724 20.317L38.8535 18.1343C37.3261 18.9872 36.2874 20.621 36.2874 22.5H38.7874ZM42.4791 16.8028C42.3313 13.2871 41.8617 10.6914 39.9773 8.81172L38.2118 10.5817C39.3599 11.7269 39.8349 13.4256 39.9813 16.9078L42.4791 16.8028ZM40.0724 24.683C39.3019 24.2528 38.7874 23.4347 38.7874 22.5H36.2874C36.2874 24.379 37.3261 26.0128 38.8535 26.8657L40.0724 24.683ZM39.9813 28.0922C39.8349 31.5744 39.3599 33.2731 38.2118 34.4183L39.9773 36.1883C41.8617 34.3086 42.3313 31.7129 42.4791 28.1973L39.9813 28.0922ZM38.8535 26.8657C39.3842 27.1621 39.7365 27.3594 39.9761 27.5105C40.0942 27.585 40.1521 27.628 40.175 27.6471C40.2084 27.6747 40.1305 27.6203 40.0536 27.483L42.2351 26.2619C42.0934 26.0088 41.9023 25.8315 41.7699 25.7219C41.6271 25.6036 41.4666 25.4949 41.3099 25.396C40.9998 25.2004 40.5763 24.9644 40.0724 24.683L38.8535 26.8657ZM42.4791 28.1972C42.4927 27.8729 42.5074 27.5492 42.4956 27.2803C42.4836 27.008 42.4418 26.6311 42.2351 26.2619L40.0536 27.483C39.9765 27.3453 39.9922 27.2576 39.998 27.3901C40.004 27.526 39.9968 27.7227 39.9813 28.0922L42.4791 28.1972ZM40.0724 20.317C40.5763 20.0356 40.9998 19.7996 41.3099 19.604C41.4666 19.5051 41.6271 19.3964 41.7699 19.2781C41.9023 19.1685 42.0934 18.9912 42.2351 18.7381L40.0536 17.517C40.1305 17.3797 40.2084 17.3253 40.175 17.3529C40.1521 17.372 40.0942 17.415 39.9761 17.4895C39.7365 17.6406 39.3842 17.8379 38.8535 18.1343L40.0724 20.317ZM39.9813 16.9078C39.9968 17.2773 40.004 17.474 39.998 17.6099C39.9922 17.7424 39.9765 17.6547 40.0536 17.517L42.2351 18.7381C42.4418 18.3689 42.4836 17.9921 42.4956 17.7197C42.5074 17.4508 42.4927 17.1271 42.4791 16.8028L39.9813 16.9078ZM4.92757 24.683C4.42374 24.9644 4.00015 25.2004 3.69007 25.396C3.53337 25.4949 3.3729 25.6036 3.23012 25.7219C3.09773 25.8315 2.90657 26.0088 2.76491 26.2619L4.94638 27.483C4.86951 27.6203 4.7916 27.6747 4.82497 27.6471C4.84795 27.628 4.90575 27.585 5.02389 27.5105C5.26347 27.3594 5.61579 27.1621 6.14649 26.8657L4.92757 24.683ZM5.01873 28.0922C5.00319 27.7227 4.99602 27.526 5.002 27.3901C5.00783 27.2576 5.0235 27.3453 4.94638 27.483L2.76491 26.2619C2.55822 26.6311 2.5164 27.008 2.50442 27.2803C2.49259 27.5492 2.5073 27.8729 2.52094 28.1972L5.01873 28.0922ZM6.14649 18.1343C5.61578 17.8379 5.26346 17.6406 5.02388 17.4895C4.90575 17.415 4.84795 17.372 4.82497 17.3529C4.7916 17.3253 4.86951 17.3797 4.94638 17.517L2.76491 18.7381C2.90656 18.9912 3.09772 19.1685 3.23011 19.2781C3.37289 19.3964 3.53337 19.5051 3.69006 19.604C4.00015 19.7996 4.42374 20.0356 4.92757 20.317L6.14649 18.1343ZM2.52094 16.8028C2.5073 17.1271 2.49259 17.4508 2.50442 17.7197C2.5164 17.992 2.55822 18.3689 2.76491 18.7381L4.94638 17.517C5.0235 17.6547 5.00783 17.7424 5.002 17.6099C4.99602 17.474 5.00319 17.2773 5.01873 16.9078L2.52094 16.8028ZM27.5257 13.1214L27.512 8.43115L25.0121 8.43841L25.0257 13.1286L27.5257 13.1214ZM28.1553 13.75C27.8047 13.75 27.5257 13.4672 27.5257 13.125H25.0257C25.0257 14.8538 26.4298 16.25 28.1553 16.25V13.75ZM28.785 13.125C28.785 13.4672 28.506 13.75 28.1553 13.75V16.25C29.8809 16.25 31.285 14.8538 31.285 13.125H28.785ZM28.785 8.46784V13.125H31.285V8.46784H28.785ZM30.9573 8.78503C35.0558 8.89073 36.9574 9.33041 38.2118 10.5817L39.9773 8.81172C37.9403 6.77974 35.0513 6.38979 31.0218 6.28586L30.9573 8.78503ZM31.285 8.46784C31.285 8.64275 31.1408 8.78976 30.9573 8.78503L31.0218 6.28586C29.7899 6.25408 28.785 7.24667 28.785 8.46784H31.285ZM25.3222 8.75C25.1542 8.75 25.0126 8.61356 25.0121 8.43841L27.512 8.43115C27.5085 7.22259 26.5262 6.25 25.3222 6.25V8.75ZM31.9908 38.6817C35.5036 38.5333 38.0973 38.0636 39.9773 36.1883L38.2118 34.4183C37.065 35.5622 35.3642 36.0369 31.8853 36.1839L31.9908 38.6817ZM28.785 31.875V35.5809H31.285V31.875H28.785ZM25.0148 35.6268C25.0141 35.8518 25.0135 36.0275 25.0093 36.1781C25.005 36.3293 24.9977 36.4242 24.9892 36.4864C24.9733 36.6026 24.9704 36.4743 25.1039 36.3412L26.8691 38.1115C27.277 37.7048 27.412 37.2194 27.466 36.8263C27.515 36.4693 27.5136 36.0396 27.5148 35.6341L25.0148 35.6268ZM24.3898 38.75C24.7953 38.75 25.225 38.7526 25.5822 38.7047C25.9754 38.6519 26.4612 38.5183 26.8691 38.1115L25.1039 36.3412C25.2374 36.2081 25.3656 36.2113 25.2494 36.2269C25.1872 36.2353 25.0923 36.2423 24.9411 36.2461C24.7905 36.2499 24.6148 36.25 24.3898 36.25V38.75ZM31.8853 36.1839C31.6595 36.1934 31.4842 36.2008 31.334 36.2031C31.1831 36.2055 31.09 36.2021 31.0301 36.1962C30.9714 36.1904 30.9788 36.1852 31.0194 36.2007C31.0702 36.2202 31.1334 36.2565 31.1888 36.3096L29.4587 38.1143C29.8817 38.5199 30.3773 38.6441 30.7855 38.6842C31.1506 38.7201 31.5859 38.6988 31.9908 38.6817L31.8853 36.1839ZM28.785 35.5809C28.785 35.9958 28.7822 36.4368 28.833 36.8029C28.8891 37.2081 29.0316 37.7049 29.4587 38.1143L31.1888 36.3096C31.2468 36.3653 31.286 36.4286 31.3069 36.4776C31.3233 36.5162 31.3179 36.5216 31.3093 36.4596C31.3005 36.3966 31.2931 36.3 31.2891 36.1453C31.2851 35.9912 31.285 35.8114 31.285 35.5809H28.785Z" fill="white"/>
</svg>
