<svg width="45" height="45" viewBox="0 0 45 45" fill="none" xmlns="http://www.w3.org/2000/svg">
<path fill-rule="evenodd" clip-rule="evenodd" d="M22.5 2.34375C17.5812 2.34375 13.5938 6.33121 13.5938 11.25C13.5938 16.1688 17.5812 20.1562 22.5 20.1562C27.4188 20.1562 31.4062 16.1688 31.4062 11.25C31.4062 6.33121 27.4188 2.34375 22.5 2.34375ZM16.4062 11.25C16.4062 7.88451 19.1345 5.15625 22.5 5.15625C25.8655 5.15625 28.5938 7.88451 28.5938 11.25C28.5938 14.6155 25.8655 17.3438 22.5 17.3438C19.1345 17.3438 16.4062 14.6155 16.4062 11.25Z" fill="white"/>
<path d="M33.75 6.09375C32.9734 6.09375 32.3438 6.72335 32.3438 7.5C32.3438 8.27665 32.9734 8.90625 33.75 8.90625C36.3309 8.90625 37.9688 10.6045 37.9688 12.1875C37.9688 13.7705 36.3309 15.4688 33.75 15.4688C32.9734 15.4688 32.3438 16.0983 32.3438 16.875C32.3438 17.6516 32.9734 18.2812 33.75 18.2812C37.3823 18.2812 40.7812 15.7822 40.7812 12.1875C40.7812 8.59284 37.3823 6.09375 33.75 6.09375Z" fill="white"/>
<path d="M12.6562 7.5C12.6562 6.72335 12.0267 6.09375 11.25 6.09375C7.61771 6.09375 4.21875 8.59284 4.21875 12.1875C4.21875 15.7822 7.61771 18.2812 11.25 18.2812C12.0267 18.2812 12.6562 17.6516 12.6562 16.875C12.6562 16.0983 12.0267 15.4688 11.25 15.4688C8.66909 15.4688 7.03125 13.7705 7.03125 12.1875C7.03125 10.6045 8.66909 8.90625 11.25 8.90625C12.0267 8.90625 12.6562 8.27665 12.6562 7.5Z" fill="white"/>
<path fill-rule="evenodd" clip-rule="evenodd" d="M22.5 22.9688C19.1545 22.9688 16.0621 23.8702 13.765 25.4016C11.4777 26.9265 9.84375 29.1875 9.84375 31.875C9.84375 34.5625 11.4777 36.8235 13.765 38.3484C16.0621 39.8798 19.1545 40.7812 22.5 40.7812C25.8455 40.7812 28.9379 39.8798 31.235 38.3484C33.5223 36.8235 35.1562 34.5625 35.1562 31.875C35.1562 29.1875 33.5223 26.9265 31.235 25.4016C28.9379 23.8702 25.8455 22.9688 22.5 22.9688ZM12.6562 31.875C12.6562 30.4204 13.5407 28.9314 15.3251 27.7418C17.0997 26.5587 19.6323 25.7812 22.5 25.7812C25.3677 25.7812 27.9003 26.5587 29.6749 27.7418C31.4593 28.9314 32.3438 30.4204 32.3438 31.875C32.3438 33.3296 31.4593 34.8186 29.6749 36.0082C27.9003 37.1913 25.3677 37.9688 22.5 37.9688C19.6323 37.9688 17.0997 37.1913 15.3251 36.0082C13.5407 34.8186 12.6562 33.3296 12.6562 31.875Z" fill="white"/>
<path d="M36.1264 25.9488C36.2928 25.1902 37.0426 24.71 37.8012 24.8764C39.6048 25.2719 41.2299 25.9863 42.4365 26.9736C43.642 27.9601 44.5312 29.3161 44.5312 30.9375C44.5312 32.5589 43.642 33.9149 42.4365 34.9014C41.2299 35.8887 39.6048 36.6031 37.8012 36.9986C37.0426 37.165 36.2928 36.6848 36.1264 35.9262C35.96 35.1676 36.4402 34.4178 37.1988 34.2514C38.6845 33.9256 39.8718 33.366 40.6554 32.7247C41.4401 32.0827 41.7188 31.4556 41.7188 30.9375C41.7188 30.4194 41.4401 29.7923 40.6554 29.1503C39.8718 28.509 38.6845 27.9494 37.1988 27.6236C36.4402 27.4572 35.96 26.7074 36.1264 25.9488Z" fill="white"/>
<path d="M7.19878 24.8764C7.9574 24.71 8.70725 25.1902 8.87361 25.9488C9.03997 26.7074 8.55985 27.4572 7.80122 27.6236C6.31554 27.9494 5.12822 28.509 4.3446 29.1503C3.55993 29.7923 3.28125 30.4194 3.28125 30.9375C3.28125 31.4556 3.55993 32.0827 4.3446 32.7247C5.12822 33.366 6.31554 33.9256 7.80122 34.2514C8.55985 34.4178 9.03997 35.1676 8.87361 35.9262C8.70725 36.6848 7.9574 37.165 7.19878 36.9986C5.39525 36.6031 3.77007 35.8887 2.56349 34.9014C1.35797 33.9149 0.46875 32.5589 0.46875 30.9375C0.46875 29.3161 1.35797 27.9601 2.56349 26.9736C3.77007 25.9863 5.39525 25.2719 7.19878 24.8764Z" fill="white"/>
</svg>
